<svg xmlns="http://www.w3.org/2000/svg" width="800" height="800" fill="none"><g clip-path="url(#a)"><path fill="#605DFF" d="M800 400c0-55.98-26.285-105.821-67.185-137.855 6.27-51.572-10.385-105.401-49.97-144.985C643.26 77.576 589.43 60.919 537.86 67.19 505.825 26.2866 455.982 0 400 0c-55.98 0-105.821 26.2849-137.855 67.186-51.573-6.271-105.403 10.3855-144.987 49.97-39.5845 39.585-56.241 93.414-49.97 144.988C26.2857 294.177 0 344.019 0 400c0 55.98 26.2849 105.82 67.186 137.855-6.271 51.575 10.3855 105.405 49.97 144.985 39.585 39.585 93.414 56.245 144.988 49.97C294.177 773.715 344.019 800 400 800c55.98 0 105.82-26.285 137.855-67.185 51.57 6.27 105.4-10.385 144.985-49.97 39.585-39.585 56.24-93.415 49.97-144.985C773.715 505.825 800 455.982 800 400Z"/><path fill="#EFC75E" d="M597.969 333.685H456.16L541.831 150H324.26L226 466.011h135.531l-65.347 216.554 301.785-348.88Z"/><path fill="#F5DD9D" d="M345.729 183.468h133.24l-120.012 33.353-73.397 149.785 60.169-183.138Z"/></g><defs><clipPath id="a"><path fill="#fff" d="M0 0h800v800H0z"/></clipPath></defs></svg>